<svg width="500" height="500" viewBox="0 0 500 500" fill="none" xmlns="http://www.w3.org/2000/svg">
<g clip-path="url(#clip0_13_2)">
<path d="M336.641 272.706C346.215 271.67 350.31 275.755 352.265 284.663C348.787 284.776 344.925 284.721 341.418 284.74L325.336 284.751C327.27 277.912 329.641 274.778 336.641 272.706Z" fill="#FEBC2E"/>
<path d="M44.1723 259.476C54.0022 259.322 65.493 257.942 73.0712 265.39C81.8178 273.986 81.7869 288.301 73.4691 297.117C64.6741 304.979 55.7321 303.154 44.1104 303.113L44.1723 259.476Z" fill="#FEBC2E"/>
<path d="M123.885 273.933C144.374 271.874 147.358 299.848 129.804 304.62C128.168 304.733 126.619 304.847 124.989 304.651C111.38 303.019 108.035 284.113 118.347 276.376C120.212 274.977 121.73 274.525 123.885 273.933Z" fill="#FEBC2E"/>
<path d="M226.173 279.176C231.978 278.297 237.407 282.261 238.338 288.058C239.269 293.855 235.354 299.319 229.565 300.302C223.704 301.298 218.154 297.322 217.211 291.451C216.268 285.58 220.294 280.067 226.173 279.176Z" fill="#FEBC2E"/>
<path d="M235.765 232.483C261.521 232.479 287.89 232.252 313.618 232.544C329.572 232.772 345.528 232.836 361.484 232.739C370.032 232.739 379.953 233 388.362 232.604C384.145 236.589 377.795 243.093 374.604 247.784C368.879 256.2 364.064 270.389 362.955 280.398C361.032 273.854 358.261 269.145 352.103 265.622C346.284 262.294 336.453 262.152 330.179 264.057C323.699 265.96 318.277 270.427 315.169 276.424C308.827 288.649 312.556 306.196 325.43 312.483C332.527 315.949 342.054 316.382 349.585 314.006C354.328 312.459 357.132 310.039 360.741 306.747L353.857 299.214C344.342 308.101 329.936 307.698 326.001 293.681L351.273 293.59C353.978 293.592 361.253 293.803 363.537 293.561C363.325 307.972 372.757 324.284 382.439 334.569C373.55 334.832 363.224 334.588 354.219 334.602L303.534 334.788L112.096 334.806L50.0902 334.777C38.4454 334.764 26.0636 334.528 14.4916 334.816C14.0099 301.028 14.5955 266.42 14.3725 232.469C34.535 232.939 56.4485 232.422 76.8129 232.473L235.765 232.483ZM232.701 260.608C229.536 260.591 225.708 260.483 222.589 260.593C221.623 265.475 221.936 266.995 217.02 268.657C214.408 267.779 212.828 266.916 210.457 265.467C208.275 267.701 206.122 269.964 203.997 272.253C212.044 286.438 201.257 281.262 198.605 285.174C198.092 287.437 198.351 292.043 198.407 294.58C200.496 295.069 202.804 295.557 204.858 296.109C205.735 297.739 206.246 298.621 206.841 300.406C205.998 302.89 205.058 304.438 203.536 306.596C205.688 308.901 208.121 311.635 210.387 313.773L216.251 310.39C218.101 311.116 219.463 311.643 221.229 312.562C221.961 314.867 222.353 316.457 222.862 318.83C225.982 318.877 229.23 318.884 232.339 318.984C232.943 316.888 233.653 314.135 234.491 312.187C235.929 311.697 237.548 311.183 238.956 310.653C240.893 311.738 242.879 312.887 244.827 313.935C247.219 311.566 249.523 309.109 251.735 306.57C250.135 304.426 249.087 302.89 248.099 300.344C248.891 298.565 249.296 297.752 250.317 296.091C252.571 295.354 254.337 295.005 256.669 294.524C256.776 291.126 256.818 287.725 256.793 284.325C251.485 283.296 249.959 283.753 248.381 278.347C249.307 276.14 250.211 274.687 251.441 272.62C249.928 270.638 246.712 267.404 244.902 265.591C236.574 269.478 234.942 270.253 232.701 260.608ZM154.056 284.154C151.21 268.948 137.23 260.959 122.435 263.09C106.426 265.334 96.9054 277.506 99.3832 293.673C100.46 300.306 104.096 306.254 109.512 310.234C116.225 315.112 123.454 315.948 131.467 315.216C139.437 313.689 145.155 311.184 149.92 304.241C153.904 298.357 155.391 291.133 154.056 284.154ZM62.0219 247.881C58.1532 247.683 54.171 247.767 50.2914 247.764C43.8217 247.755 37.3519 247.789 30.8822 247.864L30.5961 247.867C30.5806 270.145 30.8053 292.757 30.5629 314.999C37.0127 314.919 43.464 314.892 49.9144 314.917C63.3008 314.924 73.0883 315.28 83.6312 305.284C103.973 284.642 91.209 249.368 62.0219 247.881ZM195.068 263.074C194.478 262.622 194.813 262.77 193.98 262.794C188.462 263.361 184.189 264.97 180.554 269.497C179.586 270.698 178.746 271.998 178.048 273.374L177.968 263.204C173.621 263.08 169.271 263.045 164.923 263.101L164.853 306.377L164.81 314.942C169.144 314.896 173.644 314.79 177.962 314.885C178.018 309.835 178.029 304.784 177.995 299.733C177.969 292.705 176.983 284.469 182.623 279.125C186.101 275.832 190.218 275.022 194.814 275.202L195.256 275.223C195.294 272.676 195.552 265.183 195.068 263.074ZM307.064 247.711C291.354 247.807 275.106 247.573 259.483 247.858C259.513 251.771 259.49 255.684 259.412 259.597C266.202 259.588 273.407 259.697 280.163 259.453L280.143 302.723C280.125 306.746 280.159 310.906 280.06 314.916C284.627 314.855 289.195 314.824 293.762 314.825C293.117 297.348 293.732 277.098 293.738 259.451C300.733 259.524 307.904 259.523 314.878 259.706L314.906 247.633L307.064 247.711Z" fill="#FEBC2E"/>
<path d="M46.9159 156.397C53.2201 156.466 59.7131 156.122 65.925 156.997C76.085 158.428 78.2934 171.456 71.8526 178.025C65.7419 182.549 54.5638 181.423 46.7741 181.433C46.9997 173.232 46.7837 164.686 46.9159 156.397Z" fill="#FF5F57"/>
<path d="M281.64 171.179C302.435 169.653 304.099 198.113 286.743 201.906C283.207 202.097 279.693 202.107 276.71 200.003C265.416 192.031 267.707 174.425 281.64 171.179Z" fill="#FF5F57"/>
<path d="M24.2294 139.525C32.9773 128.796 48.0091 121.323 61.9062 121.8C64.9257 121.903 68.6529 122.623 71.7949 122.893C75.6227 123.222 77.4727 122.925 81.1484 122.646C73.1936 129.853 70.5075 132.744 60.1406 135.507C67.74 136.294 73.4127 136.47 80.3622 132.493C82.662 131.177 85.0171 129.471 87.206 128.224C87.4574 129.715 87.8212 132.077 88.3749 133.431C91.1772 140.278 93.9036 140.707 94.4169 148.597C97.3215 140.361 97.1938 136.372 94.5644 128.006C96.9087 129.366 100.021 131.228 102.407 132.392C108.644 135.432 112.794 136.381 117.692 141.604C114.786 133.344 109.321 129.75 102.393 124.697C105.484 125.552 111.642 125.185 115.228 125.445C127.175 126.387 138.257 132.042 146.029 141.164C181.234 141.603 217.406 141.181 252.688 141.174L278.846 141.163C295.858 141.157 307.394 140.321 320.869 152.738C346.359 176.227 332.038 220.645 298.241 225.619C290.441 226.767 279.278 226.129 271.078 226.125L220.456 226.103L94.3749 226.139C73.6379 226.153 52.7608 225.94 32.0341 226.167C31.882 226.045 31.7291 225.921 31.5771 225.799C19.5344 215.775 12.0075 201.347 10.6767 185.735C9.30079 168.418 13.0533 153.233 24.2294 139.525ZM311.215 183.7C309.69 168.68 296.292 157.73 281.269 159.225C266.203 160.723 255.215 174.168 256.744 189.23C258.274 204.294 271.739 215.255 286.8 213.695C301.817 212.14 312.739 198.72 311.215 183.7ZM119.963 159.091C104.784 159.404 92.7597 172.01 93.162 187.187C93.5646 202.364 106.24 214.314 121.414 213.822C136.462 213.335 148.292 200.786 147.893 185.735C147.494 170.685 135.016 158.781 119.963 159.091ZM59.5995 144.64C50.8143 144.776 42.0277 144.824 33.2411 144.785L33.2812 212.512L46.8847 212.432L46.8642 196.106L46.9091 192.939C57.8235 193.157 72.8957 194.467 81.4501 186.353C90.0038 178.241 90.7731 160.418 82.3173 151.877C76.1332 145.63 68.6635 144.702 60.2988 144.643L59.5995 144.64ZM241.119 164.652C234.104 158.05 219.215 158.43 212.746 165.861C210.67 168.226 209.689 170.123 208.436 172.978C205.739 163.732 198.649 159.893 189.379 160.031C180.716 160.809 176.423 163.575 172.272 171.455L172.299 160.643C167.86 160.583 163.421 160.578 158.983 160.626L159.024 212.438L172.283 212.447C172.274 204.563 172.264 196.68 172.243 188.793C172.23 184.098 173.088 179.296 176.574 175.826C182.542 169.885 194.77 171.089 195.929 180.75C196.496 185.187 196.102 189.32 196.17 193.758C196.142 199.951 196.252 206.16 196.198 212.325L209.529 212.376L209.451 203.512C209.394 195.164 207.728 182.076 213.791 175.597C217.731 171.387 226.429 171.159 230.58 175.376C231.855 176.695 232.738 178.343 233.129 180.136C233.814 183.133 233.63 189.681 233.633 192.911L233.618 212.329C237.894 212.348 242.709 212.478 246.941 212.348C246.9 205.64 246.905 198.932 246.955 192.225C246.994 183.211 248.274 171.387 241.119 164.652Z" fill="#FF5F57"/>
<path d="M118.487 171.161C138.155 169.602 141.035 198.039 123.066 201.93C119.367 202.073 116.71 202.012 113.346 200C105.615 195.375 104.029 184.36 108.88 177.122C111.289 173.526 114.39 172.023 118.487 171.161Z" fill="#FF5F57"/>
<path d="M430.684 224.489C464.845 224.121 492.865 251.461 493.336 285.62C493.807 319.78 466.551 347.881 432.393 348.454C398.09 349.03 369.843 321.634 369.37 287.329C368.897 253.025 396.378 224.86 430.684 224.489ZM406.45 260.536C403.218 260.541 399.894 260.508 396.671 260.558C396.285 262.517 395.937 264.585 395.334 266.482C393.527 267.669 393.053 267.865 391.081 268.644C388.69 267.775 387.287 267.003 385.02 265.791C383.131 267.728 380.716 270.078 378.994 272.1C379.968 273.788 381.372 276.071 382.067 277.817C381.505 279.31 380.917 281.022 380.222 282.44C377.842 283.201 376.238 283.394 373.92 283.958C373.944 287.082 373.928 290.327 374.005 293.441C376.059 293.835 377.683 294.108 379.758 294.353C380.381 296.016 381.364 298.436 381.783 300.094C380.784 302.329 380.175 303.348 378.853 305.434C380.978 307.728 383.314 310.367 385.517 312.543C387.153 311.52 389.232 310.139 390.883 309.234L395.241 311.401C396.16 313.665 396.365 314.825 396.816 317.24C399.947 317.427 403.209 317.349 406.354 317.329L407.913 311.649C409.653 310.592 410.525 310.191 412.395 309.381C414.569 310.308 415.556 310.864 417.594 312.09L417.832 311.756C419.159 309.929 423.695 305.381 423.624 303.99L423.308 303.569C420.671 300.78 417.531 297.613 415.04 294.756C409.379 301.402 401.464 305.546 393.889 298.617C391.279 296.187 389.77 292.8 389.709 289.235C389.563 282.389 395.722 275.91 402.675 276.064C408.305 276.189 411.546 279.283 415.153 283.061C418.148 279.646 420.894 276.5 424.101 273.293C421.887 270.952 419.71 268.575 417.571 266.165C415.419 267.163 414.025 267.873 411.74 268.461C405.988 266.532 407.858 265.583 406.45 260.536ZM428.556 244.061C428.251 267.621 428.436 291.417 428.355 314.997C432.764 314.954 437.173 314.943 441.582 314.965L441.601 298.945C441.603 294.937 441.316 288.719 442.272 284.987C442.905 282.608 444.166 280.443 445.923 278.719C451.882 272.848 464.007 274.042 465.365 283.506C466.089 288.548 465.472 293.897 465.567 299.021L465.552 314.959C469.966 314.886 474.38 314.879 478.795 314.937L478.82 292.262C478.824 287.005 479.168 281.265 478.136 276.147C477.539 273.192 475.593 269.763 473.5 267.706C466.441 260.771 451.756 261.359 445.174 268.787C443.728 270.419 442.404 272.314 441.311 274.21C442.16 266.057 441.431 252.751 441.708 244.126C437.325 244.028 432.94 244.006 428.556 244.061Z" fill="#28C840"/>
<path d="M90.0931 118.737C91.6683 114.295 88.9021 108.017 87.1283 104.006C86.5532 102.705 93.9586 101.392 94.4009 101.816C97.051 104.35 95.9065 116.834 95.7189 119.379C102.51 115.708 107.555 120.276 115.05 119.211C119.348 118.6 121.26 115.399 122.256 115.431C121.974 126.034 100.127 121.484 99.44 123.53C97.964 123.268 96.4191 122.587 95.0006 122.04C94.0211 123.84 92.8999 126.334 91.2917 127.53C88.2 129.83 86.3069 125.375 85.6511 123.133C82.6328 117.304 65.2319 124.968 56.0255 114.363C62.28 116.518 66.2358 117.626 72.9436 116.874C78.1096 116.294 84.9631 114.745 89.0143 118.729L90.0931 118.737Z" fill="#28C840"/>
<path d="M89.0143 118.729L90.0931 118.737C89.8932 119.77 89.6469 121.619 88.7119 122.193C88.3753 121.187 88.7977 119.826 89.0143 118.729Z" fill="#28C840"/>
</g>
<defs>
<clipPath id="clip0_13_2">
<rect width="500" height="500" fill="white"/>
</clipPath>
</defs>
</svg>
